<?xml version="1.0" encoding="utf-8"?>
<!-- Generator: Adobe Illustrator 25.4.1, SVG Export Plug-In . SVG Version: 6.00 Build 0)  -->
<svg version="1.1" id="Layer_1" xmlns="http://www.w3.org/2000/svg" xmlns:xlink="http://www.w3.org/1999/xlink" x="0px" y="0px"
	 viewBox="0 0 2000 2000" style="enable-background:new 0 0 2000 2000;" xml:space="preserve">
<style type="text/css">
	.st0{fill:url(#SVGID_1_);}
	.st1{fill:url(#SVGID_00000080887501258889669160000012090840616766621110_);}
	.st2{fill:url(#SVGID_00000067207788380698527560000006221846615292930974_);}
	.st3{fill:url(#SVGID_00000115475936315253876680000015521610165258719107_);}
	.st4{fill:url(#SVGID_00000077318473943915308440000017669820587526822579_);}
</style>
<g>
	<linearGradient id="SVGID_1_" gradientUnits="userSpaceOnUse" x1="716" y1="1208.9635" x2="1282.7903" y2="1208.9635">
		<stop  offset="0" style="stop-color:#A16D29"/>
		<stop  offset="0.1943" style="stop-color:#FFCA06"/>
		<stop  offset="0.2246" style="stop-color:#DCA61E"/>
		<stop  offset="0.271" style="stop-color:#B98225"/>
		<stop  offset="0.3148" style="stop-color:#A26C25"/>
		<stop  offset="0.3544" style="stop-color:#955F25"/>
		<stop  offset="0.386" style="stop-color:#915B24"/>
		<stop  offset="0.5311" style="stop-color:#FFE375"/>
		<stop  offset="0.669" style="stop-color:#B08137"/>
		<stop  offset="0.7487" style="stop-color:#915B24"/>
	</linearGradient>
	<path class="st0" d="M755.52,1227.11v8.21H716v-52.7h38.47v8.21h-28.68v13.7h25.44v8.06h-25.44v14.53H755.52z M766.44,1182.62
		h23.04c17.09,0,28.76,10.54,28.76,26.35s-11.67,26.35-28.76,26.35h-23.04V1182.62z M789.02,1227.03c11.74,0,19.35-7.15,19.35-18.07
		c0-10.92-7.6-18.07-19.35-18.07h-12.8v36.13H789.02z M828.17,1212.35v-29.74h9.79v29.36c0,10.84,4.89,15.51,13.4,15.51
		c8.51,0,13.32-4.67,13.32-15.51v-29.36h9.64v29.74c0,15.36-8.66,23.71-23.04,23.71C836.83,1236.06,828.17,1227.71,828.17,1212.35z
		 M884.25,1208.96c0-15.73,12.04-27.1,28.23-27.1c8.58,0,15.96,3.09,20.85,8.81l-6.32,5.95c-3.84-4.14-8.58-6.17-14.08-6.17
		c-10.91,0-18.82,7.68-18.82,18.52c0,10.84,7.9,18.52,18.82,18.52c5.5,0,10.24-2.03,14.08-6.25l6.32,6.02
		c-4.89,5.72-12.27,8.81-20.93,8.81C896.3,1236.06,884.25,1224.7,884.25,1208.96z M975.79,1223.12h-26.35l-5.19,12.2h-10.09
		l23.71-52.7h9.64l23.79,52.7h-10.24L975.79,1223.12z M972.56,1215.44l-9.94-23.03l-9.86,23.03H972.56z M1006.06,1190.9h-17.46
		v-8.28h44.71v8.28h-17.46v44.41h-9.79V1190.9z M1040.69,1182.62h9.79v52.7h-9.79V1182.62z M1060.94,1208.96
		c0-15.58,12.04-27.1,28.38-27.1c16.34,0,28.38,11.44,28.38,27.1c0,15.66-12.04,27.1-28.38,27.1
		C1072.98,1236.06,1060.94,1224.55,1060.94,1208.96z M1107.84,1208.96c0-10.77-7.9-18.52-18.52-18.52
		c-10.61,0-18.52,7.75-18.52,18.52c0,10.76,7.9,18.52,18.52,18.52C1099.93,1227.48,1107.84,1219.73,1107.84,1208.96z
		 M1174.91,1182.62v52.7h-8.05l-29.06-35.68v35.68h-9.71v-52.7h8.06l29.06,35.68v-35.68H1174.91z M1223.24,1223.12h-26.35
		l-5.19,12.2h-10.09l23.71-52.7h9.64l23.79,52.7h-10.24L1223.24,1223.12z M1220.01,1215.44l-9.94-23.03l-9.86,23.03H1220.01z
		 M1245.45,1182.62h9.79v44.41h27.55v8.28h-37.34V1182.62z"/>
	<g>
		
			<linearGradient id="SVGID_00000183953268163456119790000018387166649695325584_" gradientUnits="userSpaceOnUse" x1="715.7504" y1="964.0624" x2="1082.6812" y2="964.0624">
			<stop  offset="0" style="stop-color:#A16D29"/>
			<stop  offset="0.1943" style="stop-color:#FFCA06"/>
			<stop  offset="0.2246" style="stop-color:#DCA61E"/>
			<stop  offset="0.271" style="stop-color:#B98225"/>
			<stop  offset="0.3148" style="stop-color:#A26C25"/>
			<stop  offset="0.3544" style="stop-color:#955F25"/>
			<stop  offset="0.386" style="stop-color:#915B24"/>
			<stop  offset="0.5311" style="stop-color:#FFE375"/>
			<stop  offset="0.669" style="stop-color:#B08137"/>
			<stop  offset="0.7487" style="stop-color:#915B24"/>
		</linearGradient>
		<path style="fill:url(#SVGID_00000183953268163456119790000018387166649695325584_);" d="M982.43,1141.42
			c-15.5-4.28-29.39-11.76-42.22-21.38c-14.43-11.22-23.52-24.05-34.74-38.48c-13.36-18.7-26.72-37.41-40.62-55.58
			c-3.74-5.34-8.02-10.69-13.9-13.9c-5.34-3.21-10.15-4.28-16.57-4.81l-8.02-0.53h-27.26v39.01c0,8.02,5.34,18.71,11.76,18.71v1.07
			h-40.62v-1.07c5.34,0,8.55-6.41,10.15-10.69c1.6-4.28,1.6-8.55,1.6-13.36V873.67c0-4.81,0-9.09-1.6-13.36
			c-1.6-4.28-4.81-10.69-10.15-10.69v-1.07h40.62v1.07c-5.88,0-11.76,10.15-11.76,18.17l0.53,136.28h21.91
			c13.9,0,27.26-1.6,40.08-5.34c5.88-2.14,11.76-4.28,17.64-6.95c5.34-3.21,10.69-6.41,16.03-10.69
			c24.05-18.71,32.07-54.51,32.07-82.3c0-62.53-39.55-114.37-99.94-114.37c-32.6,0-60.39,11.22-81.23,32.6
			c-18.7,19.77-29.39,45.96-29.39,74.29c0,27.26,11.22,54.51,31,74.82c5.88,6.41,12.29,11.22,19.24,16.03v1.07
			c-7.48-4.28-13.9-9.62-20.31-16.03c-19.77-20.31-31-48.1-31-75.89c0-28.86,10.69-55.58,29.93-75.35
			c20.84-21.38,49.17-33.13,81.77-33.13c77.49,0,117.57,56.65,117.57,117.57c0,22.45-6.95,44.89-17.64,59.86
			c-12.29,16.03-28.33,27.79-45.96,35.27c-5.88,2.67-11.76,4.81-18.17,6.41c-4.81,1.07-10.15,2.14-14.96,2.67l2.14,0.53
			c14.43,1.6,27.79,8.02,36.88,20.31c11.22,14.96,21.38,29.39,32.07,44.36l9.62,13.36c24.58,32.07,45.43,54.51,73.75,59.32
			c22.45,4.28,53.75-4.33,79.41-12.88l0.53,1.07c-24.05,8.55-62.31,17.15-85.29,13.95L982.43,1141.42z"/>
	</g>
	<g>
		<g>
			<g>
				<path d="M779.19,1157.69c-0.08,0-0.16-0.01-0.24-0.02l-40.07-7.45v-61.34l10.71,2.01c0.72,0.13,1.19,0.82,1.05,1.54
					c-0.13,0.72-0.82,1.19-1.54,1.05l-7.59-1.43v55.97l37.91,7.05c0.72,0.13,1.19,0.82,1.05,1.54
					C780.36,1157.25,779.81,1157.69,779.19,1157.69z"/>
			</g>
			<g>
				<path d="M803.12,1157.47c-0.62,0-1.17-0.44-1.29-1.07c-0.14-0.71,0.33-1.4,1.05-1.54l35.94-6.82v-55.97l-6.65,1.25
					c-0.72,0.13-1.4-0.34-1.54-1.05c-0.13-0.72,0.34-1.4,1.05-1.54l9.77-1.83v61.33l-38.09,7.23
					C803.29,1157.46,803.21,1157.47,803.12,1157.47z"/>
			</g>
			<g>
				<path d="M803.13,1157.47c-0.47,0-0.93-0.26-1.17-0.71c-0.34-0.64-0.09-1.44,0.56-1.78l28.1-14.69v-52.07l-6.8,3.52
					c-0.65,0.33-1.44,0.08-1.78-0.56c-0.33-0.65-0.08-1.44,0.56-1.78l10.65-5.51v58l-29.51,15.43
					C803.54,1157.42,803.33,1157.47,803.13,1157.47z"/>
			</g>
			<g>
				<path d="M779.19,1157.69c-0.2,0-0.41-0.05-0.6-0.15l-30.56-15.65v-58.01l10.65,5.51c0.65,0.33,0.9,1.13,0.56,1.78
					c-0.33,0.65-1.13,0.9-1.78,0.56l-6.8-3.52v52.06l29.12,14.91c0.65,0.33,0.9,1.13,0.57,1.77
					C780.13,1157.43,779.66,1157.69,779.19,1157.69z"/>
			</g>
			<g>
				<polygon points="741.51,1136.04 738.88,1136.04 738.88,1088.88 748.03,1090.6 748.03,1083.89 756.75,1088.41 756.75,1079.3 
					759.39,1079.3 759.39,1092.74 750.66,1088.22 750.66,1093.78 741.51,1092.06 				"/>
			</g>
			<g>
				<path d="M790.98,1147.93l-34.23-26.31v-42.17l1.17-0.15c0.01,0,0.02,0,0.04,0c1.47-0.2,2.98-0.3,4.48-0.3
					c6.17,0,12.19,1.71,17.41,4.95c4.4,2.73,8.09,6.45,10.79,10.84c2.7-4.39,6.39-8.11,10.79-10.84c5.22-3.24,11.24-4.95,17.41-4.95
					c1.5,0,3.01,0.1,4.48,0.3l1.2,0.16v42.15L790.98,1147.93z M759.39,1120.32l21.9,16.83l9.68,7.44l9.26-7.27l21.66-17v-38.55
					c-1.01-0.1-2.03-0.15-3.05-0.15c-11.4,0-21.75,6.29-27.02,16.41c-0.02,0.04-0.04,0.08-0.06,0.12c-0.09,0.14-0.2,0.26-0.34,0.36
					c-0.17,0.13-0.38,0.22-0.6,0.25c-0.08,0.01-0.15,0.01-0.23,0.01c-0.28-0.01-0.53-0.11-0.74-0.26c-0.09-0.07-0.17-0.14-0.24-0.23
					c-0.06-0.08-0.11-0.16-0.16-0.25c-5.27-10.12-15.61-16.4-27.01-16.4c-1.02,0-2.04,0.05-3.05,0.15V1120.32z"/>
			</g>
		</g>
		<g>
			<path d="M790.17,1128.67c-2.76,0-5.35-1.07-7.3-3.02c-1.95-1.95-3.02-4.54-3.02-7.3s1.07-5.35,3.02-7.3
				c1.95-1.95,4.54-3.02,7.3-3.02c2.76,0,5.35,1.07,7.3,3.02c1.95,1.95,3.02,4.54,3.02,7.3s-1.07,5.35-3.02,7.3
				S792.93,1128.67,790.17,1128.67z M790.17,1110.65c-4.24,0-7.69,3.45-7.69,7.69s3.45,7.69,7.69,7.69s7.69-3.45,7.69-7.69
				S794.41,1110.65,790.17,1110.65z"/>
		</g>
	</g>
	<path d="M1142,1132.05h-28.66l-5.65,13.26h-10.97l25.79-57.31H1133l25.87,57.31h-11.13L1142,1132.05z M1138.48,1123.7l-10.81-25.05
		l-10.73,25.05H1138.48z"/>
	<path d="M1235.53,1088v57.31h-8.76l-31.6-38.81v38.81h-10.56V1088h8.76l31.6,38.81V1088H1235.53z"/>
	<path d="M1272.48,1088h10.64v57.31h-10.64V1088z"/>
	<g>
		<g>
			<path d="M872.01,1259.27h-9.87v-4.68h25.27v4.68h-9.87v25.1h-5.53V1259.27z"/>
			<path d="M945.08,1284.37l-6.08-8.72c-0.38,0.04-0.77,0.04-1.15,0.04h-6.72v8.68h-5.53v-29.78h12.25c7.83,0,12.68,4,12.68,10.59
				c0,4.51-2.3,7.83-6.34,9.4l6.85,9.78H945.08z M937.59,1259.27h-6.47v11.87h6.47c4.85,0,7.36-2.21,7.36-5.96
				S942.44,1259.27,937.59,1259.27z"/>
			<path d="M990.45,1271.4v-16.8h5.53v16.59c0,6.13,2.76,8.76,7.57,8.76s7.53-2.64,7.53-8.76v-16.59h5.44v16.8
				c0,8.68-4.89,13.4-13.02,13.4C995.34,1284.79,990.45,1280.07,990.45,1271.4z"/>
			<path d="M1055.77,1281.22l1.91-4.3c2.38,1.91,6.17,3.28,9.83,3.28c4.64,0,6.59-1.66,6.59-3.87c0-6.42-17.7-2.21-17.7-13.27
				c0-4.81,3.83-8.89,12-8.89c3.57,0,7.32,0.94,9.91,2.64l-1.74,4.3c-2.68-1.57-5.61-2.34-8.21-2.34c-4.59,0-6.47,1.79-6.47,4.04
				c0,6.34,17.65,2.21,17.65,13.14c0,4.76-3.87,8.85-12.04,8.85C1062.88,1284.79,1058.24,1283.35,1055.77,1281.22z"/>
			<path d="M1124.67,1259.27h-9.87v-4.68h25.27v4.68h-9.87v25.1h-5.53V1259.27z"/>
		</g>
	</g>
	
		<linearGradient id="SVGID_00000090989914497169284800000015944319491051697587_" gradientUnits="userSpaceOnUse" x1="749.6" y1="783.0139" x2="837.6" y2="783.0139">
		<stop  offset="0" style="stop-color:#A16D29"/>
		<stop  offset="0.1943" style="stop-color:#FFCA06"/>
		<stop  offset="0.2246" style="stop-color:#DCA61E"/>
		<stop  offset="0.271" style="stop-color:#B98225"/>
		<stop  offset="0.3148" style="stop-color:#A26C25"/>
		<stop  offset="0.3544" style="stop-color:#955F25"/>
		<stop  offset="0.386" style="stop-color:#915B24"/>
		<stop  offset="0.5311" style="stop-color:#FFE375"/>
		<stop  offset="0.669" style="stop-color:#B08137"/>
		<stop  offset="0.7487" style="stop-color:#915B24"/>
	</linearGradient>
	<path style="fill:url(#SVGID_00000090989914497169284800000015944319491051697587_);" d="M791.89,773.8
		c-16.15,4.06-30.6,10.33-42.29,17.85l2.87,5.22c11.38-7.03,25.21-12.89,40.56-16.75c15.59-3.92,30.77-5.28,44.28-4.38l0.22-0.06
		l0.07-6.16C823.74,768.43,808.04,769.74,791.89,773.8z"/>
	
		<linearGradient id="SVGID_00000116946400461370922060000018004388835896157076_" gradientUnits="userSpaceOnUse" x1="726.9686" y1="753.0358" x2="841.7714" y2="753.0358">
		<stop  offset="0" style="stop-color:#A16D29"/>
		<stop  offset="0.1943" style="stop-color:#FFCA06"/>
		<stop  offset="0.2246" style="stop-color:#DCA61E"/>
		<stop  offset="0.271" style="stop-color:#B98225"/>
		<stop  offset="0.3148" style="stop-color:#A26C25"/>
		<stop  offset="0.3544" style="stop-color:#955F25"/>
		<stop  offset="0.386" style="stop-color:#915B24"/>
		<stop  offset="0.5311" style="stop-color:#FFE375"/>
		<stop  offset="0.669" style="stop-color:#B08137"/>
		<stop  offset="0.7487" style="stop-color:#915B24"/>
	</linearGradient>
	<path style="fill:url(#SVGID_00000116946400461370922060000018004388835896157076_);" d="M839.24,731.74
		c-0.4,0.1-0.8,0.12-1.19,0.08l-0.4,33.7c-14.12-1.24-30.22,0.02-46.79,4.19c-16.56,4.16-31.35,10.66-43.2,18.43l-15.92-28.84
		c-0.19,0.09-0.4,0.17-0.61,0.22c-1.79,0.45-3.61-0.64-4.06-2.43c-0.45-1.8,0.64-3.61,2.43-4.07c1.79-0.45,3.61,0.64,4.06,2.43
		c0.24,0.96,0.04,1.93-0.48,2.7l17.71,7.13c1.61,0.65,3.38-0.51,3.43-2.24l0.65-20.46c-1.73,0.32-3.43-0.74-3.86-2.47
		c-0.45-1.79,0.64-3.61,2.43-4.06c1.8-0.45,3.61,0.64,4.07,2.43c0.32,1.26-0.13,2.54-1.05,3.34l15.67,13.97
		c1.53,1.35,3.95,0.41,4.15-1.62l2.77-27.53c-2,0.06-3.83-1.27-4.34-3.29c-0.59-2.33,0.83-4.71,3.17-5.29
		c2.34-0.59,4.71,0.83,5.3,3.16c0.51,2.05-0.52,4.13-2.35,5l14.96,23.84c1.1,1.75,3.74,1.48,4.46-0.47l7.81-21.11
		c-1.26-0.22-2.35-1.15-2.68-2.48c-0.45-1.8,0.64-3.62,2.43-4.07s3.61,0.64,4.06,2.43c0.44,1.76-0.58,3.53-2.31,4.04l11.26,17.29
		c0.92,1.41,2.94,1.53,4.01,0.24l12.08-14.46c-0.84-0.42-1.49-1.18-1.74-2.16c-0.45-1.79,0.64-3.61,2.43-4.06
		c1.8-0.45,3.62,0.63,4.07,2.43C842.12,729.47,841.03,731.29,839.24,731.74z"/>
	<g>
		<rect x="716.09" y="1266.14" width="127.76" height="6.34"/>
		<rect x="1155.32" y="1266.14" width="127.76" height="6.34"/>
	</g>
	<g>
		
			<linearGradient id="SVGID_00000175289883167043182260000008840738034360031929_" gradientUnits="userSpaceOnUse" x1="616.5" y1="1000" x2="1383.5" y2="1000">
			<stop  offset="0" style="stop-color:#A16D29"/>
			<stop  offset="0.1943" style="stop-color:#FFCA06"/>
			<stop  offset="0.2246" style="stop-color:#DCA61E"/>
			<stop  offset="0.271" style="stop-color:#B98225"/>
			<stop  offset="0.3148" style="stop-color:#A26C25"/>
			<stop  offset="0.3544" style="stop-color:#955F25"/>
			<stop  offset="0.386" style="stop-color:#915B24"/>
			<stop  offset="0.5311" style="stop-color:#FFE375"/>
			<stop  offset="0.669" style="stop-color:#B08137"/>
			<stop  offset="0.7487" style="stop-color:#915B24"/>
		</linearGradient>
		<path style="fill:url(#SVGID_00000175289883167043182260000008840738034360031929_);" d="M1383.5,1383.5h-767v-767h767V1383.5z
			 M629.5,1370.5h741v-741h-741V1370.5z"/>
	</g>
</g>
</svg>
